<svg width="1200" height="720" viewBox="0 0 1200 720" fill="none" xmlns="http://www.w3.org/2000/svg">
  <rect width="1200" height="720" rx="28" fill="#F4F0E8"/>
  <rect x="70" y="70" width="1060" height="580" rx="22" fill="#FFFDF8" stroke="#D8CFC2" stroke-width="4"/>
  <rect x="130" y="140" width="300" height="440" rx="18" fill="#F8F5EE" stroke="#D8CFC2" stroke-width="3"/>
  <rect x="490" y="140" width="580" height="180" rx="18" fill="#F8F5EE" stroke="#D8CFC2" stroke-width="3"/>
  <rect x="490" y="350" width="580" height="230" rx="18" fill="#F8F5EE" stroke="#D8CFC2" stroke-width="3"/>
  <rect x="170" y="190" width="220" height="20" rx="10" fill="#D8CFC2"/>
  <rect x="170" y="230" width="180" height="16" rx="8" fill="#E7DED0"/>
  <rect x="170" y="262" width="210" height="16" rx="8" fill="#E7DED0"/>
  <rect x="170" y="294" width="160" height="16" rx="8" fill="#E7DED0"/>
  <path d="M560 220H980" stroke="#E7DED0" stroke-width="18" stroke-linecap="round"/>
  <path d="M560 262H880" stroke="#E7DED0" stroke-width="18" stroke-linecap="round"/>
  <circle cx="1010" cy="465" r="46" fill="#B45A31"/>
  <path d="M995 468L1008 482L1028 452" stroke="#FFFDF8" stroke-width="10" stroke-linecap="round" stroke-linejoin="round"/>
  <text x="140" y="540" fill="#2A221B" font-size="42" font-family="Arial, sans-serif" font-weight="700">Design: flows, wireframes, and prototype validation</text>
</svg>
