<svg width="1em" height="1em" viewBox="0 0 24 24" fill="none" xmlns="http://www.w3.org/2000/svg">
<path d="M15.0298 2.48972C14.1569 2.21472 13.4108 3.16871 13.8735 3.95871C14.6045 5.20471 14.9985 6.61072 14.9985 8.02072C14.9985 12.4387 11.4168 16.0207 6.99848 16.0207C6.16658 16.0207 5.32518 15.8857 4.56098 15.6457C3.68808 15.3707 2.91068 16.3247 3.37348 17.1147C5.15098 20.1467 8.39968 22.0207 11.9985 22.0207C17.5213 22.0207 21.9985 17.5437 21.9985 12.0207C21.9985 7.61972 19.158 3.78772 15.0298 2.48972ZM16.6235 5.48972C18.6876 6.94871 19.9985 9.35371 19.9985 12.0207C19.9985 16.4387 16.4168 20.0207 11.9985 20.0207C9.97038 20.0207 8.11658 19.2407 6.68598 17.9587C6.79268 17.9617 6.89218 18.0207 6.99848 18.0207C12.5214 18.0207 16.9985 13.5437 16.9985 8.02072C16.9985 7.16372 16.8465 6.31571 16.6235 5.48972Z" fill="currentColor"/>
</svg>
