<svg width="1em" height="1em" viewBox="0 0 24 24" fill="none" xmlns="http://www.w3.org/2000/svg">
<path d="M12.0146 1.95312C11.4626 1.95312 11.0146 2.40113 11.0146 2.95313V4.95313C11.0146 5.50513 11.4626 5.95313 12.0146 5.95313C12.5666 5.95313 13.0146 5.50513 13.0146 4.95313V2.95313C13.0146 2.40113 12.5666 1.95312 12.0146 1.95312ZM5.63965 4.57813C5.38365 4.57813 5.14765 4.69513 4.95265 4.89113C4.56165 5.28113 4.56165 5.90712 4.95265 6.29712L6.29565 7.67212C6.68665 8.06212 7.34364 8.06312 7.73364 7.67212C8.12364 7.28112 8.12464 6.62413 7.73364 6.23413L6.35864 4.89113C6.16264 4.69513 5.89565 4.57813 5.63965 4.57813ZM18.3586 4.60913C18.1026 4.60913 17.8667 4.69513 17.6707 4.89113L16.2957 6.23413C15.9057 6.62513 15.9057 7.28112 16.2957 7.67212C16.6867 8.06212 17.3426 8.06212 17.7336 7.67212L19.0766 6.29712C19.4676 5.90612 19.4676 5.28113 19.0766 4.89113C18.8816 4.69513 18.6146 4.60913 18.3586 4.60913ZM12.0146 6.95313C9.25365 6.95313 7.01465 9.19213 7.01465 11.9531C7.01465 14.7141 9.25365 16.9531 12.0146 16.9531C14.7756 16.9531 17.0146 14.7141 17.0146 11.9531C17.0146 9.19213 14.7756 6.95313 12.0146 6.95313ZM3.01465 10.9531C2.46265 10.9531 2.01465 11.4011 2.01465 11.9531C2.01465 12.5051 2.46265 12.9531 3.01465 12.9531H5.01465C5.56665 12.9531 6.01465 12.5051 6.01465 11.9531C6.01465 11.4011 5.56665 10.9531 5.01465 10.9531H3.01465ZM19.0146 10.9531C18.4626 10.9531 18.0146 11.4011 18.0146 11.9531C18.0146 12.5051 18.4626 12.9531 19.0146 12.9531H21.0146C21.5666 12.9531 22.0146 12.5051 22.0146 11.9531C22.0146 11.4011 21.5666 10.9531 21.0146 10.9531H19.0146ZM7.01465 15.9531C6.75865 15.9521 6.49165 16.0391 6.29565 16.2341L4.92065 17.6091C4.52965 17.9991 4.53165 18.6241 4.92065 19.0151C5.31065 19.4071 5.96664 19.4051 6.35864 19.0151L7.73364 17.6721C8.12464 17.2821 8.12264 16.6261 7.73364 16.2341C7.53864 16.0391 7.27065 15.9541 7.01465 15.9531ZM17.0146 15.9531C16.7586 15.9531 16.4907 16.0391 16.2957 16.2341C15.9057 16.6251 15.9047 17.2821 16.2957 17.6721L17.7027 19.0471C18.0927 19.4371 18.7186 19.4381 19.1086 19.0471C19.4986 18.6561 19.4996 17.9991 19.1086 17.6091L17.7336 16.2341C17.5376 16.0391 17.2706 15.9531 17.0146 15.9531ZM12.0146 17.9531C11.4626 17.9531 11.0146 18.4011 11.0146 18.9531V20.9531C11.0146 21.5051 11.4626 21.9531 12.0146 21.9531C12.5666 21.9531 13.0146 21.5051 13.0146 20.9531V18.9531C13.0146 18.4011 12.5666 17.9531 12.0146 17.9531Z" fill="currentColor"/>
</svg>
