<svg width="1em" height="1em" viewBox="0 0 24 24" fill="none" xmlns="http://www.w3.org/2000/svg">
<path d="M12.0137 1.95312C11.4617 1.95312 11.0137 2.40113 11.0137 2.95313V4.95313C11.0137 5.50513 11.4617 5.95313 12.0137 5.95313C12.5657 5.95313 13.0137 5.50513 13.0137 4.95313V2.95313C13.0137 2.40113 12.5657 1.95312 12.0137 1.95312ZM5.63867 4.57813C5.38267 4.57813 5.14667 4.69513 4.95167 4.89113C4.56067 5.28113 4.56067 5.90712 4.95167 6.29712L6.29467 7.67212C6.68567 8.06212 7.34266 8.06312 7.73266 7.67212C8.12266 7.28112 8.12366 6.62413 7.73266 6.23413L6.35766 4.89113C6.16166 4.69513 5.89467 4.57813 5.63867 4.57813ZM18.3577 4.60913C18.1017 4.60913 17.8657 4.69513 17.6697 4.89113L16.2947 6.23413C15.9047 6.62513 15.9047 7.28112 16.2947 7.67212C16.6857 8.06212 17.3417 8.06212 17.7327 7.67212L19.0757 6.29712C19.4667 5.90612 19.4667 5.28113 19.0757 4.89113C18.8807 4.69513 18.6137 4.60913 18.3577 4.60913ZM12.0137 6.95313C9.25267 6.95313 7.01367 9.19213 7.01367 11.9531C7.01367 14.7141 9.25267 16.9531 12.0137 16.9531C14.7747 16.9531 17.0137 14.7141 17.0137 11.9531C17.0137 9.19213 14.7747 6.95313 12.0137 6.95313ZM12.0137 8.95313C13.6707 8.95313 15.0137 10.2961 15.0137 11.9531C15.0137 13.6101 13.6707 14.9531 12.0137 14.9531C10.3567 14.9531 9.01367 13.6101 9.01367 11.9531C9.01367 10.2961 10.3567 8.95313 12.0137 8.95313ZM3.01367 10.9531C2.46167 10.9531 2.01367 11.4011 2.01367 11.9531C2.01367 12.5051 2.46167 12.9531 3.01367 12.9531H5.01367C5.56567 12.9531 6.01367 12.5051 6.01367 11.9531C6.01367 11.4011 5.56567 10.9531 5.01367 10.9531H3.01367ZM19.0137 10.9531C18.4617 10.9531 18.0137 11.4011 18.0137 11.9531C18.0137 12.5051 18.4617 12.9531 19.0137 12.9531H21.0137C21.5657 12.9531 22.0137 12.5051 22.0137 11.9531C22.0137 11.4011 21.5657 10.9531 21.0137 10.9531H19.0137ZM7.01367 15.9531C6.75767 15.9521 6.49067 16.0391 6.29467 16.2341L4.91968 17.6091C4.52868 17.9991 4.53068 18.6241 4.91968 19.0151C5.30968 19.4071 5.96566 19.4051 6.35766 19.0151L7.73266 17.6721C8.12366 17.2821 8.12166 16.6261 7.73266 16.2341C7.53766 16.0391 7.26967 15.9541 7.01367 15.9531ZM17.0137 15.9531C16.7577 15.9531 16.4897 16.0391 16.2947 16.2341C15.9047 16.6251 15.9037 17.2821 16.2947 17.6721L17.7017 19.0471C18.0917 19.4371 18.7177 19.4381 19.1077 19.0471C19.4977 18.6561 19.4987 17.9991 19.1077 17.6091L17.7327 16.2341C17.5367 16.0391 17.2697 15.9531 17.0137 15.9531ZM12.0137 17.9531C11.4617 17.9531 11.0137 18.4011 11.0137 18.9531V20.9531C11.0137 21.5051 11.4617 21.9531 12.0137 21.9531C12.5657 21.9531 13.0137 21.5051 13.0137 20.9531V18.9531C13.0137 18.4011 12.5657 17.9531 12.0137 17.9531Z" fill="currentColor"/>
</svg>
